<svg width="118" height="24" viewBox="0 0 118 24" fill="none" xmlns="http://www.w3.org/2000/svg">
<path d="M4.52557 19H0.571023L6.59659 1.54545H11.3523L17.3693 19H13.4148L9.04261 5.53409H8.90625L4.52557 19ZM4.27841 12.1392H13.6193V15.0199H4.27841V12.1392Z" fill="#FF5182"/>
<path d="M20.7228 23.9091C20.2626 23.9091 19.8308 23.8722 19.4274 23.7983C19.0297 23.7301 18.7001 23.642 18.4387 23.5341L19.2569 20.8239C19.6831 20.9545 20.0666 21.0256 20.4075 21.0369C20.7541 21.0483 21.0524 20.9688 21.3024 20.7983C21.5581 20.6278 21.7655 20.3381 21.9245 19.929L22.1376 19.375L17.4416 5.90909H21.2598L23.97 15.5227H24.1064L26.8422 5.90909H30.6859L25.5978 20.4148C25.3535 21.1193 25.0211 21.733 24.6007 22.2557C24.1859 22.7841 23.6603 23.1903 23.024 23.4744C22.3876 23.7642 21.6206 23.9091 20.7228 23.9091ZM33.2639 19V5.90909H36.8945V19H33.2639ZM35.0877 4.22159C34.548 4.22159 34.0849 4.04261 33.6985 3.68466C33.3178 3.32102 33.1275 2.88636 33.1275 2.38068C33.1275 1.88068 33.3178 1.4517 33.6985 1.09375C34.0849 0.730113 34.548 0.548295 35.0877 0.548295C35.6275 0.548295 36.0877 0.730113 36.4684 1.09375C36.8548 1.4517 37.048 1.88068 37.048 2.38068C37.048 2.88636 36.8548 3.32102 36.4684 3.68466C36.0877 4.04261 35.6275 4.22159 35.0877 4.22159ZM47.486 5.90909V8.63636H39.6025V5.90909H47.486ZM41.3922 2.77273H45.0229V14.9773C45.0229 15.3125 45.0741 15.5739 45.1763 15.7614C45.2786 15.9432 45.4207 16.071 45.6025 16.1449C45.79 16.2187 46.0059 16.2557 46.2502 16.2557C46.4207 16.2557 46.5911 16.2415 46.7616 16.2131C46.932 16.179 47.0627 16.1534 47.1536 16.1364L47.7246 18.8381C47.5428 18.8949 47.2871 18.9602 46.9576 19.0341C46.628 19.1136 46.2275 19.1619 45.7559 19.179C44.8809 19.2131 44.1138 19.0966 43.4547 18.8295C42.8013 18.5625 42.2928 18.1477 41.9292 17.5852C41.5655 17.0227 41.3866 16.3125 41.3922 15.4545V2.77273ZM50.5711 19V5.90909H54.2017V19H50.5711ZM52.3949 4.22159C51.8551 4.22159 51.3921 4.04261 51.0057 3.68466C50.625 3.32102 50.4347 2.88636 50.4347 2.38068C50.4347 1.88068 50.625 1.4517 51.0057 1.09375C51.3921 0.730113 51.8551 0.548295 52.3949 0.548295C52.9347 0.548295 53.3949 0.730113 53.7756 1.09375C54.162 1.4517 54.3551 1.88068 54.3551 2.38068C54.3551 2.88636 54.162 3.32102 53.7756 3.68466C53.3949 4.04261 52.9347 4.22159 52.3949 4.22159ZM80.3321 19.2557C79.0082 19.2557 77.8633 18.9744 76.8974 18.4119C75.9372 17.8437 75.1957 17.054 74.673 16.0426C74.1503 15.0256 73.8889 13.8466 73.8889 12.5057C73.8889 11.1534 74.1503 9.97159 74.673 8.96023C75.1957 7.94318 75.9372 7.15341 76.8974 6.59091C77.8633 6.02273 79.0082 5.73864 80.3321 5.73864C81.6559 5.73864 82.798 6.02273 83.7582 6.59091C84.7241 7.15341 85.4684 7.94318 85.9912 8.96023C86.5139 9.97159 86.7753 11.1534 86.7753 12.5057C86.7753 13.8466 86.5139 15.0256 85.9912 16.0426C85.4684 17.054 84.7241 17.8437 83.7582 18.4119C82.798 18.9744 81.6559 19.2557 80.3321 19.2557ZM80.3491 16.4432C80.9514 16.4432 81.4542 16.2727 81.8576 15.9318C82.2611 15.5852 82.565 15.1136 82.7696 14.517C82.9798 13.9205 83.0849 13.2415 83.0849 12.4801C83.0849 11.7188 82.9798 11.0398 82.7696 10.4432C82.565 9.84659 82.2611 9.375 81.8576 9.02841C81.4542 8.68182 80.9514 8.50852 80.3491 8.50852C79.7412 8.50852 79.2298 8.68182 78.815 9.02841C78.4059 9.375 78.0963 9.84659 77.8861 10.4432C77.6815 11.0398 77.5792 11.7188 77.5792 12.4801C77.5792 13.2415 77.6815 13.9205 77.8861 14.517C78.0963 15.1136 78.4059 15.5852 78.815 15.9318C79.2298 16.2727 79.7412 16.4432 80.3491 16.4432ZM95.7708 19.2557C94.447 19.2557 93.3021 18.9744 92.3362 18.4119C91.3759 17.8437 90.6345 17.054 90.1117 16.0426C89.589 15.0256 89.3276 13.8466 89.3276 12.5057C89.3276 11.1534 89.589 9.97159 90.1117 8.96023C90.6345 7.94318 91.3759 7.15341 92.3362 6.59091C93.3021 6.02273 94.447 5.73864 95.7708 5.73864C97.0947 5.73864 98.2367 6.02273 99.197 6.59091C100.163 7.15341 100.907 7.94318 101.43 8.96023C101.953 9.97159 102.214 11.1534 102.214 12.5057C102.214 13.8466 101.953 15.0256 101.43 16.0426C100.907 17.054 100.163 17.8437 99.197 18.4119C98.2367 18.9744 97.0947 19.2557 95.7708 19.2557ZM95.7879 16.4432C96.3901 16.4432 96.893 16.2727 97.2964 15.9318C97.6998 15.5852 98.0038 15.1136 98.2083 14.517C98.4186 13.9205 98.5237 13.2415 98.5237 12.4801C98.5237 11.7188 98.4186 11.0398 98.2083 10.4432C98.0038 9.84659 97.6998 9.375 97.2964 9.02841C96.893 8.68182 96.3901 8.50852 95.7879 8.50852C95.1799 8.50852 94.6686 8.68182 94.2538 9.02841C93.8447 9.375 93.535 9.84659 93.3248 10.4432C93.1203 11.0398 93.018 11.7188 93.018 12.4801C93.018 13.2415 93.1203 13.9205 93.3248 14.517C93.535 15.1136 93.8447 15.5852 94.2538 15.9318C94.6686 16.2727 95.1799 16.4432 95.7879 16.4432ZM108.585 15.233L108.593 10.8778H109.122L113.315 5.90909H117.482L111.849 12.4886H110.988L108.585 15.233ZM105.295 19V1.54545H108.925V19H105.295ZM113.477 19L109.624 13.2983L112.045 10.733L117.729 19H113.477Z" fill="black"/>
<path d="M57.8983 19V1.54545H64.8869C66.171 1.54545 67.242 1.7358 68.1 2.11648C68.958 2.49716 69.6028 3.02557 70.0347 3.7017C70.4665 4.37216 70.6824 5.14489 70.6824 6.01989C70.6824 6.7017 70.546 7.30114 70.2733 7.81818C70.0006 8.32955 69.6256 8.75 69.1483 9.07955C68.6767 9.40341 68.1369 9.63352 67.529 9.76989V9.94034C68.1937 9.96875 68.8159 10.1562 69.3955 10.5028C69.9807 10.8494 70.4551 11.3352 70.8187 11.9602C71.1824 12.5795 71.3642 13.3182 71.3642 14.1761C71.3642 15.1023 71.1341 15.929 70.6739 16.6562C70.2193 17.3778 69.546 17.9489 68.654 18.3693C67.7619 18.7898 66.6625 19 65.3557 19H57.8983ZM61.5886 15.983H64.5972C65.6256 15.983 66.3756 15.7869 66.8472 15.3949C67.3187 14.9972 67.5545 14.4687 67.5545 13.8097C67.5545 13.3267 67.4381 12.9006 67.2051 12.5312C66.9722 12.1619 66.6398 11.8722 66.208 11.6619C65.7818 11.4517 65.2733 11.3466 64.6824 11.3466H61.5886V15.983ZM61.5886 8.84943H64.3244C64.8301 8.84943 65.279 8.76136 65.671 8.58523C66.0687 8.40341 66.3812 8.14773 66.6085 7.81818C66.8415 7.48864 66.958 7.09375 66.958 6.63352C66.958 6.00284 66.7335 5.49432 66.2847 5.10795C65.8415 4.72159 65.2108 4.52841 64.3926 4.52841H61.5886V8.84943Z" fill="#FF009C"/>
</svg>
